<svg xmlns="http://www.w3.org/2000/svg" xmlns:xlink="http://www.w3.org/1999/xlink" width="200" zoomAndPan="magnify" viewBox="0 0 150 149.999998" height="200" preserveAspectRatio="xMidYMid meet" version="1.2"><defs><clipPath id="81ec1a4e65"><path d="M 0 33.875 L 95.25 33.875 L 95.25 116.375 L 0 116.375 Z M 0 33.875 "/></clipPath><clipPath id="bcd5a385d4"><path d="M 63 33.875 L 149 33.875 L 149 116 L 63 116 Z M 63 33.875 "/></clipPath></defs><g id="98807700c6"><g clip-rule="nonzero" clip-path="url(#81ec1a4e65)"><path style=" stroke:none;fill-rule:evenodd;fill:#ffffff;fill-opacity:1;" d="M 16.304688 89.773438 L 18.859375 89.773438 C 19.960938 89.773438 20.859375 90.671875 20.859375 91.773438 C 20.859375 92.875 19.960938 93.777344 18.859375 93.777344 L 16.304688 93.777344 C 15.203125 93.777344 14.300781 92.875 14.300781 91.773438 C 14.300781 90.621094 15.203125 89.773438 16.304688 89.773438 Z M 39.84375 34.175781 L 50.761719 34.175781 C 52.714844 34.175781 54.320312 35.777344 54.320312 37.730469 L 54.320312 96.28125 C 54.320312 98.234375 55.921875 99.839844 57.875 99.839844 L 91.632812 99.839844 C 93.585938 99.839844 95.191406 101.441406 95.191406 103.394531 L 95.191406 112.5625 C 95.191406 114.515625 93.585938 116.117188 91.632812 116.117188 L 34.382812 116.117188 C 34.335938 115.964844 34.335938 115.765625 34.335938 115.617188 C 34.335938 114.515625 35.234375 113.613281 36.339844 113.613281 L 44.851562 113.613281 C 45.953125 113.613281 46.855469 112.710938 46.855469 111.609375 C 46.855469 110.507812 45.953125 109.605469 44.851562 109.605469 L 30.425781 109.605469 C 29.324219 109.605469 28.425781 108.703125 28.425781 107.601562 C 28.425781 106.5 29.324219 105.597656 30.425781 105.597656 L 37.890625 105.597656 C 38.992188 105.597656 39.894531 104.699219 39.894531 103.59375 C 39.894531 102.492188 38.992188 101.59375 37.890625 101.59375 L 35.886719 101.59375 C 34.785156 101.59375 33.882812 100.691406 33.882812 99.589844 C 33.882812 98.488281 34.785156 97.585938 35.886719 97.585938 L 46.757812 97.585938 C 47.859375 97.585938 48.757812 96.683594 48.757812 95.582031 C 48.757812 94.480469 47.859375 93.578125 46.757812 93.578125 L 36.289062 93.578125 L 36.289062 93.527344 C 36.1875 93.527344 36.085938 93.578125 35.9375 93.578125 L 33.382812 93.578125 C 32.28125 93.578125 31.378906 92.675781 31.378906 91.574219 C 31.378906 90.472656 32.28125 89.570312 33.382812 89.570312 L 35.9375 89.570312 C 36.039062 89.570312 36.136719 89.570312 36.289062 89.621094 L 36.289062 89.773438 L 37.390625 89.773438 C 38.492188 89.773438 39.394531 88.871094 39.394531 87.769531 C 39.394531 86.667969 38.492188 85.765625 37.390625 85.765625 L 26.121094 85.765625 C 25.019531 85.765625 24.117188 84.863281 24.117188 83.761719 C 24.117188 82.660156 25.019531 81.757812 26.121094 81.757812 L 39.144531 81.757812 C 40.246094 81.757812 41.144531 80.855469 41.144531 79.753906 C 41.144531 78.652344 40.246094 77.75 39.144531 77.75 L 31.730469 77.75 C 30.628906 77.75 29.726562 76.847656 29.726562 75.746094 C 29.726562 74.644531 30.628906 73.742188 31.730469 73.742188 L 40.894531 73.742188 C 41.996094 73.742188 42.898438 72.84375 42.898438 71.742188 C 42.898438 70.636719 41.996094 69.738281 40.894531 69.738281 L 22.515625 69.738281 C 21.414062 69.738281 20.511719 68.835938 20.511719 67.734375 C 20.511719 66.632812 21.414062 65.730469 22.515625 65.730469 L 38.390625 65.730469 C 39.492188 65.730469 40.394531 64.828125 40.394531 63.726562 C 40.394531 62.625 39.492188 61.722656 38.390625 61.722656 L 36.238281 61.722656 C 35.136719 61.722656 34.234375 60.820312 34.234375 59.71875 C 34.234375 58.617188 35.136719 57.714844 36.238281 57.714844 L 36.339844 57.714844 C 37.441406 57.714844 38.339844 56.816406 38.339844 55.710938 C 38.339844 54.710938 37.640625 53.910156 36.6875 53.757812 L 34.085938 53.757812 C 32.980469 53.757812 32.082031 52.859375 32.082031 51.753906 C 32.082031 50.652344 32.980469 49.753906 34.085938 49.753906 L 42.199219 49.753906 C 43.050781 49.550781 43.699219 48.75 43.699219 47.800781 C 43.699219 46.695312 42.800781 45.796875 41.695312 45.796875 L 39.644531 45.796875 C 39.542969 45.796875 39.441406 45.84375 39.292969 45.84375 L 31.78125 45.84375 C 30.679688 45.84375 29.777344 44.945312 29.777344 43.84375 C 29.777344 42.738281 30.679688 41.839844 31.78125 41.839844 L 37.992188 41.839844 C 39.09375 41.839844 39.996094 40.9375 39.996094 39.835938 C 39.996094 38.832031 39.292969 38.03125 38.339844 37.882812 L 31.628906 37.882812 C 30.527344 37.882812 29.625 36.980469 29.625 35.878906 C 29.625 34.777344 30.527344 33.875 31.628906 33.875 L 39.84375 33.875 Z M 2.027344 89.773438 L 9.390625 89.773438 C 10.492188 89.773438 11.394531 90.671875 11.394531 91.773438 C 11.394531 92.875 10.492188 93.777344 9.390625 93.777344 L 2.027344 93.777344 C 0.925781 93.777344 0.0234375 92.875 0.0234375 91.773438 C 0.0234375 90.621094 0.925781 89.773438 2.027344 89.773438 Z M 11.042969 65.878906 L 15.753906 65.878906 C 16.855469 65.878906 17.753906 66.78125 17.753906 67.882812 C 17.753906 68.984375 16.855469 69.886719 15.753906 69.886719 L 11.042969 69.886719 C 9.941406 69.886719 9.039062 68.984375 9.039062 67.882812 C 9.039062 66.78125 9.941406 65.878906 11.042969 65.878906 Z M 23.867188 42.089844 L 26.421875 42.089844 C 27.523438 42.089844 28.425781 42.992188 28.425781 44.09375 C 28.425781 45.195312 27.523438 46.097656 26.421875 46.097656 L 23.867188 46.097656 C 22.765625 46.097656 21.863281 45.195312 21.863281 44.09375 C 21.863281 42.992188 22.765625 42.089844 23.867188 42.089844 Z M 20.710938 105.648438 L 22.964844 105.648438 C 24.066406 105.648438 24.96875 106.550781 24.96875 107.652344 C 24.96875 108.753906 24.066406 109.65625 22.964844 109.65625 L 20.710938 109.65625 C 19.609375 109.65625 18.707031 108.753906 18.707031 107.652344 C 18.707031 106.550781 19.609375 105.648438 20.710938 105.648438 Z M 14.851562 81.808594 L 19.757812 81.808594 C 20.859375 81.808594 21.761719 82.710938 21.761719 83.8125 C 21.761719 84.914062 20.859375 85.816406 19.757812 85.816406 L 14.851562 85.816406 C 13.75 85.816406 12.847656 84.914062 12.847656 83.8125 C 12.898438 82.710938 13.75 81.808594 14.851562 81.808594 Z M 18.558594 97.683594 L 27.023438 97.683594 C 28.125 97.683594 29.023438 98.585938 29.023438 99.6875 C 29.023438 100.789062 28.125 101.691406 27.023438 101.691406 L 18.558594 101.691406 C 17.457031 101.691406 16.554688 100.789062 16.554688 99.6875 C 16.554688 98.585938 17.457031 97.683594 18.558594 97.683594 Z M 15.050781 57.917969 L 29.175781 57.917969 C 30.277344 57.917969 31.179688 58.816406 31.179688 59.917969 C 31.179688 61.023438 30.277344 61.921875 29.175781 61.921875 L 15.050781 61.921875 C 13.949219 61.921875 13.046875 61.023438 13.046875 59.917969 C 13.046875 58.816406 13.949219 57.917969 15.050781 57.917969 Z M 15.050781 57.917969 "/></g><g clip-rule="nonzero" clip-path="url(#bcd5a385d4)"><path style=" stroke:none;fill-rule:evenodd;fill:#ffffff;fill-opacity:1;" d="M 96.316406 65.765625 L 106.691406 65.765625 C 109.296875 65.765625 109.296875 61.769531 106.691406 61.769531 L 78.976562 61.769531 C 76.375 61.769531 76.375 57.773438 78.976562 57.773438 L 91.777344 57.773438 C 94.382812 57.773438 94.292969 54 92.136719 53.820312 L 84.816406 53.820312 C 82.210938 53.820312 82.210938 49.824219 84.816406 49.824219 L 86.75 49.824219 C 87.421875 49.734375 88.277344 48.878906 88.277344 47.890625 C 88.277344 46.902344 87.558594 46.09375 86.613281 45.914062 L 79.515625 45.914062 C 76.914062 45.914062 76.914062 41.917969 79.515625 41.917969 L 86.972656 41.917969 C 89.578125 41.917969 89.488281 38.144531 87.332031 37.964844 L 71.703125 37.964844 C 69.097656 37.964844 69.097656 33.96875 71.703125 33.96875 L 94.382812 34.011719 C 95.417969 34.148438 96.269531 34.6875 96.855469 35.585938 L 110.015625 55.929688 C 111.40625 58.085938 114.550781 58.085938 115.988281 55.929688 L 129.28125 35.585938 C 129.957031 34.550781 131.035156 33.96875 132.246094 33.96875 L 144.058594 33.96875 C 146.933594 33.96875 148.597656 37.15625 146.980469 39.535156 L 124.792969 71.964844 C 123.9375 73.179688 123.9375 74.75 124.792969 75.964844 L 148.191406 110.277344 C 149.808594 112.660156 148.101562 115.847656 145.273438 115.847656 L 132.875 115.847656 C 131.617188 115.847656 130.585938 115.261719 129.910156 114.230469 L 115.539062 92.3125 C 114.148438 90.15625 111.003906 90.15625 109.609375 92.3125 L 95.148438 114.273438 C 94.472656 115.308594 93.394531 115.890625 92.183594 115.890625 L 75.207031 115.890625 C 74.890625 114.722656 75.746094 113.511719 76.957031 113.421875 L 79.875 113.421875 C 82.480469 113.421875 82.480469 109.425781 79.875 109.425781 L 70.535156 109.425781 C 67.929688 109.425781 67.929688 105.425781 70.535156 105.425781 L 84.144531 105.425781 C 86.75 105.425781 86.75 101.429688 84.144531 101.429688 C 82.75 101.429688 80.324219 101.742188 80.324219 99.453125 C 80.324219 98.375 81.222656 97.476562 82.300781 97.476562 L 93.933594 97.476562 C 96.539062 97.476562 96.539062 93.480469 93.933594 93.480469 L 85.851562 93.480469 C 83.246094 93.480469 83.246094 89.480469 85.851562 89.480469 L 99.234375 89.480469 C 101.839844 89.480469 101.839844 85.484375 99.234375 85.484375 L 89.890625 85.484375 C 87.289062 85.484375 87.289062 81.488281 89.890625 81.488281 C 95.058594 81.488281 100.222656 81.488281 105.386719 81.488281 C 107.992188 81.488281 107.992188 77.488281 105.386719 77.488281 L 99.144531 77.488281 C 96.539062 77.488281 96.539062 73.492188 99.144531 73.492188 L 101.347656 73.492188 C 103.816406 73.222656 103.636719 69.539062 101.121094 69.539062 C 98.695312 69.539062 96.269531 69.539062 93.84375 69.539062 C 91.238281 69.539062 91.238281 65.542969 93.84375 65.542969 L 96.316406 65.542969 Z M 88.410156 73.761719 L 93.933594 73.761719 C 96.539062 73.761719 96.539062 77.757812 93.933594 77.757812 L 88.410156 77.757812 C 85.761719 77.714844 85.761719 73.761719 88.410156 73.761719 Z M 69.230469 49.914062 L 78.527344 49.914062 C 81.132812 49.914062 81.132812 53.910156 78.527344 53.910156 L 69.230469 53.910156 C 66.582031 53.863281 66.582031 49.914062 69.230469 49.914062 Z M 65.457031 34.101562 C 66.535156 34.101562 68.738281 33.921875 68.738281 36.078125 C 68.738281 38.234375 66.535156 38.054688 65.457031 38.054688 C 62.808594 38.101562 62.808594 34.101562 65.457031 34.101562 Z M 81.71875 81.710938 C 83.289062 81.710938 86.03125 81.308594 86.03125 83.6875 C 86.03125 86.070312 83.289062 85.664062 81.71875 85.664062 C 79.066406 85.664062 79.066406 81.710938 81.71875 81.710938 Z M 77.179688 65.765625 L 86.972656 65.765625 C 89.578125 65.765625 89.578125 69.765625 86.972656 69.765625 L 77.179688 69.765625 C 74.578125 69.765625 74.578125 65.765625 77.179688 65.765625 Z M 66.492188 89.660156 L 80.324219 89.660156 C 82.929688 89.660156 82.929688 93.660156 80.324219 93.660156 L 66.492188 93.660156 C 63.84375 93.660156 63.84375 89.660156 66.492188 89.660156 Z M 73.363281 97.613281 L 77.046875 97.613281 C 79.652344 97.613281 79.652344 101.609375 77.046875 101.609375 L 73.363281 101.609375 C 70.757812 101.609375 70.757812 97.613281 73.363281 97.613281 Z M 73.363281 97.613281 "/></g></g></svg>